<?xml version="1.0" encoding="UTF-8"?>
<svg id="Camada_2" xmlns="http://www.w3.org/2000/svg" version="1.1" viewBox="0 0 294.8 294.8">
  <!-- Generator: Adobe Illustrator 30.3.0, SVG Export Plug-In . SVG Version: 2.1.3 Build 182)  -->
  <defs>
    <style>
      .st0 {
        fill: #283c25;
      }

      .st1 {
        fill: #878071;
      }

      .st2 {
        fill: #4f552c;
      }

      .st3 {
        fill: #fff;
      }

      .st4 {
        fill: #1f2619;
      }
    </style>
  </defs>
  <circle class="st3" cx="146.5" cy="146.9" r="146.5"/>
  <g id="bg">
    <g>
      <path class="st0" d="M136.2,49.1L59.6,125.7c-3.8,3.8-7.1,7.8-9.9,12.2-9-24.4-3.8-52.9,15.8-72.4,19-18.9,46.8-24.4,70.8-16.4Z"/>
      <path class="st1" d="M228,228c-19.6,19.6-48.2,24.7-72.6,15.6,4.3-2.8,8.4-6.2,12.2-9.9l76.6-76.7c8.2,24,2.9,51.8-16.2,70.9h0Z"/>
      <path class="st2" d="M138.2,243.8c-24.5,9.4-53.4,4.2-73.1-15.5-19.6-19.6-24.8-48.5-15.5-73.1,2.9,4.5,6.4,8.8,10.4,12.8l65.5,65.5c3.9,3.9,8.2,7.4,12.7,10.3h0Z"/>
      <path class="st4" d="M250.3,151h.1c0-.1-.4-.5-.4-.5-1-2.4-2.1-4.7-3.3-7-3.4-6.5-7.9-12.5-13.4-18l-29.7-29.7c-3.2-3.2-8.4-3.2-11.6,0l-46,46c-1.5,1.5-1.5,4,0,5.5h0c1.5,1.5,4,1.5,5.5,0l44.9-44.9c.7-.7,1.9-.7,2.7,0l28.7,28.7c5.5,5.5,9.8,11.7,13,18.3l-78.9,79c-4.7,4.6-9.8,8.5-15.3,11.5-5.7-3.1-11-7-15.8-11.8l-65.5-65.5c-4.8-4.8-8.8-10.2-11.9-16,3-5.5,6.9-10.7,11.5-15.3l59.7-59.7,19.2-19.2h0c2.8-2.8,1.9-7.6-1.8-9.2h0c-16.9-6.7-35.8-7.3-53-1.3-10.5,3.5-20.8,9.8-29.3,18.3-8.5,8.5-14.8,18.8-18.3,29.3-5.5,16-5.5,33.5-.2,49.3.9,2.7,2.1,5.4,3.3,8-1.3,2.8-2.5,5.6-3.4,8.4-5.5,16-5.5,33.5,0,49.5,3.8,10.8,9.8,20.8,18.3,29.3,8.5,8.5,18.7,14.8,29.2,18.3,16,5.5,33.5,5.5,49.5,0,2.8-.9,5.7-2.1,8.4-3.4,2.6,1.2,5.3,2.3,7.9,3.2,16,5.5,33.5,5.5,49.5,0,10.5-3.5,20.8-9.8,29.2-18.3,8.5-8.5,14.8-18.8,18.3-29.2,5.8-17.4,5.4-36.3-1.4-53.3h0ZM65.4,65.5c19-19,46.8-24.4,70.7-16.4L59.6,125.7c-3.8,3.8-7.1,7.8-9.9,12.2-9-24.4-3.8-52.9,15.8-72.4h0ZM65.1,228.2c-19.6-19.6-24.8-48.5-15.5-73.1,2.9,4.5,6.4,8.8,10.4,12.8l65.5,65.5c3.9,3.9,8.2,7.4,12.7,10.3-24.5,9.4-53.4,4.2-73.1-15.5h0ZM228,228c-19.6,19.6-48.2,24.7-72.6,15.6,4.3-2.8,8.4-6.2,12.2-9.9l76.6-76.7c8.2,24,2.9,51.8-16.2,70.9h0Z"/>
    </g>
  </g>
</svg>