<?xml version="1.0" encoding="UTF-8"?>
<svg id="Camada_2" data-name="Camada 2" xmlns="http://www.w3.org/2000/svg" viewBox="0 0 218.6 218.54">
  <defs>
    <style>
      .cls-1 {
        fill: #283c25;
      }

      .cls-2 {
        fill: #878071;
      }

      .cls-3 {
        fill: #4f552c;
      }

      .cls-4 {
        fill: #1f2619;
      }
    </style>
  </defs>
  <g id="bg">
    <g>
      <path class="cls-1" d="M99.01,11.51L22.38,88.13c-3.75,3.75-7.06,7.85-9.91,12.15-9.01-24.37-3.75-52.86,15.79-72.41C47.25,8.92,75.03,3.46,99.01,11.51Z"/>
      <path class="cls-2" d="M190.81,190.42c-19.57,19.57-48.24,24.7-72.6,15.65,4.32-2.84,8.44-6.17,12.19-9.92l76.65-76.65c8.2,23.99,2.88,51.79-16.25,70.92Z"/>
      <path class="cls-3" d="M101.01,206.18c-24.52,9.4-53.38,4.22-73.13-15.51-19.56-19.56-24.83-48.5-15.49-73.09,2.92,4.51,6.35,8.81,10.39,12.84l65.51,65.51c3.92,3.92,8.21,7.37,12.72,10.26Z"/>
      <path class="cls-4" d="M213.16,113.4l.14-.14-.35-.35c-.98-2.39-2.06-4.74-3.29-7.03-3.45-6.47-7.9-12.53-13.35-17.99l-29.73-29.73c-3.19-3.19-8.36-3.19-11.55,0l-45.99,45.99c-1.52,1.52-1.52,3.99,0,5.51h0c1.52,1.52,3.98,1.52,5.5,0l44.93-44.93c.74-.74,1.93-.74,2.66,0l28.67,28.67c5.46,5.46,9.82,11.66,13.04,18.29l-78.95,78.95c-4.65,4.65-9.82,8.5-15.3,11.54-5.7-3.07-11.03-6.99-15.81-11.76L28.27,124.91c-4.84-4.84-8.81-10.23-11.89-15.98,3.02-5.5,6.85-10.65,11.5-15.3l59.7-59.7,19.25-19.25h0c2.83-2.83,1.92-7.62-1.75-9.22h-.02c-16.9-6.73-35.77-7.32-53.03-1.33-10.51,3.5-20.76,9.75-29.26,18.26-8.5,8.5-14.76,18.75-18.26,29.26-5.5,15.99-5.5,33.51-.24,49.26.95,2.73,2.05,5.41,3.3,8.04-1.35,2.78-2.5,5.61-3.45,8.45-5.5,15.99-5.51,33.51,0,49.5,3.75,10.75,9.75,20.76,18.26,29.26,8.5,8.5,18.75,14.76,29.25,18.26,16.01,5.5,33.51,5.5,49.51,0,2.84-.95,5.67-2.1,8.45-3.45,2.62,1.25,5.27,2.32,7.95,3.21,16.01,5.5,33.51,5.51,49.51,0,10.5-3.5,20.75-9.75,29.25-18.26,8.5-8.5,14.76-18.75,18.26-29.25,5.81-17.45,5.37-36.35-1.4-53.27ZM28.27,27.88C47.25,8.92,75.03,3.46,99.01,11.51L22.38,88.13c-3.75,3.75-7.06,7.85-9.91,12.15-9.01-24.37-3.75-52.86,15.79-72.41ZM27.88,190.66c-19.56-19.56-24.83-48.5-15.49-73.09,2.92,4.51,6.35,8.81,10.39,12.84l65.51,65.51c3.92,3.92,8.21,7.37,12.72,10.26-24.52,9.4-53.38,4.22-73.13-15.51ZM190.81,190.42c-19.57,19.57-48.24,24.7-72.6,15.65,4.32-2.84,8.44-6.17,12.19-9.92l76.65-76.65c8.2,23.99,2.88,51.79-16.25,70.92Z"/>
    </g>
  </g>
</svg>