<?xml version="1.0" encoding="UTF-8"?>
<svg id="Camada_2" data-name="Camada 2" xmlns="http://www.w3.org/2000/svg" viewBox="0 0 860.31 218.54">
  <defs>
    <style>
      .cls-1 {
        fill: #283c25;
      }

      .cls-2 {
        fill: #878071;
      }

      .cls-3 {
        fill: #4f552c;
      }

      .cls-4 {
        fill: #1f2619;
      }
    </style>
  </defs>
  <g id="bg">
    <g>
      <path class="cls-1" d="M99.01,11.51L22.38,88.13c-3.75,3.75-7.06,7.85-9.91,12.15-9.01-24.37-3.75-52.86,15.79-72.41C47.25,8.92,75.03,3.46,99.01,11.51Z"/>
      <path class="cls-2" d="M190.81,190.42c-19.57,19.57-48.24,24.7-72.6,15.65,4.32-2.84,8.44-6.17,12.19-9.92l76.65-76.65c8.2,23.99,2.88,51.79-16.25,70.92Z"/>
      <path class="cls-3" d="M101.01,206.18c-24.52,9.4-53.38,4.22-73.13-15.51-19.56-19.56-24.83-48.5-15.49-73.09,2.92,4.51,6.35,8.81,10.39,12.84l65.51,65.51c3.92,3.92,8.21,7.37,12.72,10.26Z"/>
      <path class="cls-4" d="M213.16,113.4l.14-.14-.35-.35c-.98-2.39-2.06-4.74-3.29-7.03-3.45-6.47-7.9-12.53-13.35-17.99l-29.73-29.73c-3.19-3.19-8.36-3.19-11.55,0l-45.99,45.99c-1.52,1.52-1.52,3.99,0,5.51h0c1.52,1.52,3.98,1.52,5.5,0l44.93-44.93c.74-.74,1.93-.74,2.66,0l28.67,28.67c5.46,5.46,9.82,11.66,13.04,18.29l-78.95,78.95c-4.65,4.65-9.82,8.5-15.3,11.54-5.7-3.07-11.03-6.99-15.81-11.76L28.27,124.91c-4.84-4.84-8.81-10.23-11.89-15.98,3.02-5.5,6.85-10.65,11.5-15.3l59.7-59.7,19.25-19.25h0c2.83-2.83,1.92-7.62-1.75-9.22h-.02c-16.9-6.73-35.77-7.32-53.03-1.33-10.51,3.5-20.76,9.75-29.26,18.26-8.5,8.5-14.76,18.75-18.26,29.26-5.5,15.99-5.5,33.51-.24,49.26.95,2.73,2.05,5.41,3.3,8.04-1.35,2.78-2.5,5.61-3.45,8.45-5.5,15.99-5.51,33.51,0,49.5,3.75,10.75,9.75,20.76,18.26,29.26,8.5,8.5,18.75,14.76,29.25,18.26,16.01,5.5,33.51,5.5,49.51,0,2.84-.95,5.67-2.1,8.45-3.45,2.62,1.25,5.27,2.32,7.95,3.21,16.01,5.5,33.51,5.51,49.51,0,10.5-3.5,20.75-9.75,29.25-18.26,8.5-8.5,14.76-18.75,18.26-29.25,5.81-17.45,5.37-36.35-1.4-53.27ZM28.27,27.88C47.25,8.92,75.03,3.46,99.01,11.51L22.38,88.13c-3.75,3.75-7.06,7.85-9.91,12.15-9.01-24.37-3.75-52.86,15.79-72.41ZM27.88,190.66c-19.56-19.56-24.83-48.5-15.49-73.09,2.92,4.51,6.35,8.81,10.39,12.84l65.51,65.51c3.92,3.92,8.21,7.37,12.72,10.26-24.52,9.4-53.38,4.22-73.13-15.51ZM190.81,190.42c-19.57,19.57-48.24,24.7-72.6,15.65,4.32-2.84,8.44-6.17,12.19-9.92l76.65-76.65c8.2,23.99,2.88,51.79-16.25,70.92Z"/>
    </g>
    <g>
      <path class="cls-4" d="M300.68,80.54v15.74c0,9.95-5.6,18.92-14.61,23.43-3.48,1.74-7.46,2.67-11.49,2.67s-8.01-.93-11.49-2.67c-5.17-2.52-9.42-6.77-11.95-11.96-1.74-3.47-2.66-7.44-2.66-11.47v-29.03c0-4.04.89-7.93,2.66-11.58,2.57-5.14,6.81-9.35,11.96-11.86,3.47-1.74,7.45-2.66,11.48-2.66s8.01.92,11.49,2.67c7.97,3.86,13.53,11.82,14.49,20.76.06.61-.14,1.22-.55,1.68-.41.46-.99.72-1.61.72h-2.44c-1.1,0-2.02-.83-2.15-1.92-1.1-9.61-9.55-17.14-19.23-17.14-10.66,0-19.33,8.67-19.33,19.33v29.03c0,10.65,8.67,19.32,19.33,19.32s19.33-8.67,19.33-19.32v-11.13h-19.55c-1.2,0-2.17-.97-2.17-2.17v-2.44c0-1.19.97-2.16,2.17-2.16h24.15c1.2,0,2.17.97,2.17,2.16Z"/>
      <path class="cls-4" d="M366.03,119.46l-3.99-10.85-22.61-62.51-1.33-3.54c-.32-.85-1.13-1.41-2.03-1.41h-.03c-.91.01-1.72.6-2.02,1.46l-1.2,3.52-8.61,23.84-1.04,2.53-6.2,17.39-5.3,14.69-1.57,4.04-3.88,10.86c-.23.66-.13,1.4.27,1.98.41.57,1.07.92,1.77.92h2.66c.93,0,1.75-.59,2.05-1.47l1.2-3.49,1.67-4.45,7.16-19.97c3.51-3.66,8.25-5.75,13.07-5.75s9.67,2.09,13.07,5.74l7.26,19.83,1.58,4.6,1.32,3.55c.32.85,1.13,1.41,2.03,1.41h2.66c.71,0,1.37-.35,1.78-.93.4-.58.5-1.32.26-1.99ZM336.07,80.48c-3.17,0-6.25.59-9.11,1.73l9.11-25.31,5.31,14.71.96,2.35,2.96,8.26c-2.89-1.14-6-1.74-9.23-1.74Z"/>
      <path class="cls-4" d="M412.88,71.27c-.26-.12-.51-.24-.76-.34,3.52-3.2,5.56-7.76,5.56-12.66,0-9.44-7.68-17.12-17.12-17.12h-23.05c-1.2,0-2.17.97-2.17,2.17v76.89c0,1.2.97,2.17,2.17,2.17h23.93c14.39,0,26.1-11.71,26.1-26.1v-1.55c0-9.95-5.6-18.93-14.66-23.46ZM382.12,47.92h18.44c5.7,0,10.35,4.65,10.35,10.35s-4.65,10.36-10.35,10.36c-.13,0-.24.01-.36.03-3.6.17-7.12,1.07-10.23,2.63-2.98,1.45-5.64,3.47-7.85,5.9v-29.27ZM420.77,96.28c0,10.65-8.67,19.32-19.33,19.32h-19.32v-20.87c0-10.66,8.67-19.33,19.32-19.33s19.33,8.67,19.33,19.33v1.55Z"/>
      <path class="cls-4" d="M481.39,82.67c3.14-2.05,5.76-4.86,7.6-8.19,1.77-3.28,2.7-7,2.7-10.78s-.93-7.39-2.71-10.68c-4.03-7.32-11.68-11.87-19.95-11.87h-27.37c-1.19,0-2.17.97-2.17,2.17v76.89c0,1.2.98,2.17,2.17,2.17h2.44c1.2,0,2.17-.97,2.17-2.17v-19.28c0-8.03,6.58-14.56,14.67-14.56h9.42c8.03,0,14.56,6.53,14.56,14.56v19.28c0,1.2.97,2.17,2.17,2.17h2.43c1.2,0,2.17-.97,2.17-2.17v-19.28c0-3.61-.94-7.19-2.72-10.38-1.85-3.26-4.47-5.96-7.58-7.88ZM446.27,47.92h22.76c8.76,0,15.89,7.08,15.89,15.78s-7.13,15.9-15.89,15.9h-8.09c-3.68,0-7.31.93-10.49,2.72-1.52.87-2.92,1.91-4.18,3.09v-37.49Z"/>
      <rect class="cls-4" x="506.19" y="41.15" width="6.78" height="81.23" rx="2.17" ry="2.17"/>
      <path class="cls-4" d="M535.57,47.92v30.46h26.64c1.19,0,2.17.97,2.17,2.16v2.44c0,1.2-.98,2.17-2.17,2.17h-26.64v21.43c0,4.89,4.13,9.02,9.02,9.02h31.02c1.2,0,2.17.97,2.17,2.17v2.44c0,1.2-.97,2.17-2.17,2.17h-31.02c-3.24,0-6.35-.98-9-2.83-1.54-1.16-2.81-2.43-3.92-3.91-1.89-2.71-2.87-5.82-2.87-9.06v-63.26c0-1.2.97-2.17,2.16-2.17h44.65c1.2,0,2.17.97,2.17,2.17v2.44c0,1.19-.97,2.16-2.17,2.16h-40.04Z"/>
      <path class="cls-4" d="M635.73,117.77v2.44c0,1.2-.97,2.17-2.17,2.17h-31.02c-3.25,0-6.36-.98-9-2.83-1.54-1.16-2.81-2.43-3.93-3.91-1.89-2.71-2.87-5.82-2.87-9.06v-63.26c0-1.2.97-2.17,2.17-2.17h2.44c1.19,0,2.16.97,2.16,2.17v63.26c0,4.89,4.14,9.02,9.03,9.02h31.02c1.2,0,2.17.97,2.17,2.17Z"/>
      <path class="cls-4" d="M720.04,43.32v52.96c0,4.03-.92,8-2.67,11.49-2.52,5.17-6.77,9.42-11.95,11.95-3.47,1.73-7.45,2.66-11.48,2.66s-7.82-.9-11.46-2.66c-5.2-2.53-9.45-6.78-11.98-11.97-1.73-3.47-2.66-7.44-2.66-11.47v-52.96c0-1.2.98-2.17,2.17-2.17h2.44c1.2,0,2.17.97,2.17,2.17v52.96c0,10.65,8.67,19.32,19.32,19.32s19.33-8.67,19.33-19.32v-52.96c0-1.2.97-2.17,2.17-2.17h2.43c1.2,0,2.17.97,2.17,2.17Z"/>
      <path class="cls-4" d="M781.31,43.32v2.44c0,.39-.11.78-.32,1.12l-2.43,3.99-40.49,64.73h38.64c1.19,0,2.17.97,2.17,2.17v2.44c0,1.2-.98,2.17-2.17,2.17h-45.43c-1.19,0-2.16-.97-2.16-2.17v-2.44c0-.4.11-.79.31-1.13l2.44-3.99,40.48-64.73h-41.07c-1.19,0-2.16-.97-2.16-2.16v-2.44c0-1.2.97-2.17,2.16-2.17h47.87c1.19,0,2.16.97,2.16,2.17Z"/>
      <path class="cls-4" d="M844.22,119.46l-3.98-10.85-22.61-62.51-1.33-3.54c-.32-.85-1.13-1.41-2.03-1.41h-.03c-.91.01-1.72.6-2.02,1.46l-1.21,3.52-8.61,23.84-1.03,2.53-6.2,17.39-5.3,14.69-1.57,4.04-3.88,10.86c-.24.66-.14,1.4.27,1.98.41.57,1.07.92,1.77.92h2.66c.92,0,1.75-.59,2.05-1.47l1.2-3.49,1.67-4.45,7.16-19.97c3.51-3.66,8.25-5.75,13.07-5.75s9.66,2.09,13.07,5.74l7.26,19.83,1.57,4.6,1.33,3.55c.32.85,1.13,1.41,2.03,1.41h2.66c.71,0,1.37-.35,1.78-.93.4-.58.5-1.32.25-1.99ZM814.27,80.48c-3.17,0-6.25.59-9.11,1.73l9.11-25.31,5.31,14.71.96,2.35,2.95,8.26c-2.88-1.14-5.99-1.74-9.22-1.74Z"/>
      <rect class="cls-4" x="853.54" y="41.15" width="6.77" height="81.23" rx="2.17" ry="2.17"/>
    </g>
    <g>
      <path class="cls-2" d="M356.05,148.01c-4.7,0-8.76,1.68-12.09,5.01-3.32,3.32-5.01,7.39-5.01,12.09s1.68,8.76,5.01,12.09c3.32,3.32,7.39,5.01,12.09,5.01s8.76-1.68,12.08-5.01c3.32-3.32,5.01-7.39,5.01-12.09s-1.69-8.76-5.01-12.09c-3.32-3.32-7.39-5.01-12.08-5.01ZM356.05,179.46c-3.95,0-7.37-1.42-10.17-4.21-2.79-2.79-4.21-6.21-4.21-10.15s1.42-7.36,4.21-10.15c2.79-2.79,6.21-4.21,10.17-4.21s7.37,1.42,10.17,4.21c2.79,2.79,4.21,6.21,4.21,10.15s-1.42,7.36-4.21,10.15c-2.79,2.79-6.21,4.21-10.17,4.21Z"/>
      <path class="cls-2" d="M399.42,148.01h-10.49c-.84,0-1.36.52-1.36,1.36v31.47c0,.84.52,1.36,1.36,1.36h10.49c4.7,0,8.76-1.68,12.08-5.01,3.32-3.32,5.01-7.39,5.01-12.09s-1.69-8.76-5.01-12.09c-3.32-3.32-7.39-5.01-12.08-5.01ZM399.42,179.46h-9.13v-28.71h9.13c3.95,0,7.37,1.42,10.17,4.21,2.79,2.79,4.21,6.21,4.21,10.15s-1.42,7.36-4.21,10.15c-2.79,2.79-6.21,4.21-10.17,4.21Z"/>
      <path class="cls-2" d="M445.69,148.01c-4.7,0-8.76,1.68-12.09,5.01-3.32,3.32-5.01,7.39-5.01,12.09s1.68,8.76,5.01,12.09c3.32,3.32,7.39,5.01,12.09,5.01s8.76-1.68,12.08-5.01c3.32-3.32,5.01-7.39,5.01-12.09s-1.69-8.76-5.01-12.09c-3.32-3.32-7.39-5.01-12.08-5.01ZM445.69,179.46c-3.95,0-7.37-1.42-10.17-4.21-2.79-2.79-4.21-6.21-4.21-10.15s1.42-7.36,4.21-10.15c2.79-2.79,6.21-4.21,10.17-4.21s7.37,1.42,10.17,4.21c2.79,2.79,4.21,6.21,4.21,10.15s-1.42,7.36-4.21,10.15c-2.79,2.79-6.21,4.21-10.17,4.21Z"/>
      <path class="cls-2" d="M503.06,148.01c-.84,0-1.36.52-1.36,1.36v27.51l-21.98-28.25c-.34-.41-.72-.62-1.13-.62-.84,0-1.37.52-1.37,1.36v31.47c0,.84.52,1.36,1.36,1.36s1.36-.52,1.36-1.36v-27.51l21.95,28.26c.34.4.72.61,1.14.61.87,0,1.38-.51,1.38-1.36v-31.47c0-.84-.52-1.36-1.36-1.36Z"/>
      <path class="cls-2" d="M541.18,148.01h-20.98c-.84,0-1.36.52-1.36,1.37s.52,1.37,1.36,1.37h9.13v30.09c0,.84.52,1.36,1.36,1.36s1.36-.52,1.36-1.36v-30.09h9.13c.84,0,1.36-.52,1.36-1.37s-.52-1.37-1.36-1.37Z"/>
      <path class="cls-2" d="M570.55,148.01c-4.7,0-8.76,1.68-12.09,5.01-3.32,3.32-5.01,7.39-5.01,12.09s1.68,8.76,5.01,12.09c3.32,3.32,7.39,5.01,12.09,5.01s8.76-1.68,12.08-5.01c3.32-3.32,5.01-7.39,5.01-12.09s-1.69-8.76-5.01-12.09c-3.32-3.32-7.39-5.01-12.08-5.01ZM570.55,179.46c-3.95,0-7.37-1.42-10.17-4.21-2.79-2.79-4.21-6.21-4.21-10.15s1.42-7.36,4.21-10.15c2.79-2.79,6.21-4.21,10.17-4.21s7.37,1.42,10.17,4.21c2.79,2.79,4.21,6.21,4.21,10.15s-1.42,7.36-4.21,10.15c-2.79,2.79-6.21,4.21-10.17,4.21Z"/>
      <path class="cls-2" d="M620.9,179.46h-16.13v-30.09c0-.84-.52-1.36-1.36-1.36s-1.36.52-1.36,1.36v31.47c0,.84.52,1.36,1.36,1.36h17.48c.84,0,1.36-.52,1.36-1.37s-.52-1.37-1.36-1.37Z"/>
      <path class="cls-2" d="M645.8,148.01c-4.7,0-8.76,1.68-12.09,5.01-3.32,3.32-5.01,7.39-5.01,12.09s1.68,8.76,5.01,12.09c3.32,3.32,7.39,5.01,12.09,5.01s8.76-1.68,12.08-5.01c3.32-3.32,5.01-7.39,5.01-12.09s-1.69-8.76-5.01-12.09c-3.32-3.32-7.39-5.01-12.08-5.01ZM645.8,179.46c-3.95,0-7.37-1.42-10.17-4.21-2.79-2.79-4.21-6.21-4.21-10.15s1.42-7.36,4.21-10.15c2.79-2.79,6.21-4.21,10.17-4.21s7.37,1.42,10.17,4.21c2.79,2.79,4.21,6.21,4.21,10.15s-1.42,7.36-4.21,10.15c-2.79,2.79-6.21,4.21-10.17,4.21Z"/>
      <path class="cls-2" d="M692.09,150.75c3.48,0,6.91,1.42,10.18,4.21.3.25.61.38.93.38.86,0,1.38-.52,1.38-1.38,0-.24-.07-.6-.41-.93-3.18-3.33-7.25-5.02-12.08-5.02s-8.76,1.68-12.08,5.01c-3.32,3.32-5,7.39-5,12.09s1.69,8.76,5.01,12.09c3.32,3.32,7.39,5.01,12.08,5.01,2.16,0,4.36-.44,6.54-1.3,2.34-.93,4.21-2.19,5.56-3.73.25-.27.38-.59.38-.92v-11.14c0-.84-.52-1.36-1.36-1.36s-1.36.52-1.36,1.36v10.54c-2.72,2.53-6.01,3.81-9.76,3.81-3.95,0-7.37-1.42-10.17-4.21-2.79-2.79-4.21-6.21-4.21-10.15s1.42-7.36,4.21-10.15c2.79-2.79,6.21-4.21,10.16-4.21Z"/>
      <path class="cls-2" d="M721.52,148.01c-.84,0-1.36.52-1.36,1.36v31.47c0,.84.52,1.36,1.36,1.36s1.36-.52,1.36-1.36v-31.47c0-.84-.52-1.36-1.36-1.36Z"/>
      <path class="cls-2" d="M764.18,165.7c-4.81-9.65-7.67-15.31-8.5-16.83-.4-.71-.92-.86-1.29-.86s-.87.15-1.27.86c-.83,1.52-3.61,7.02-8.5,16.83-7.33,14.75-7.33,14.94-7.33,15.16,0,.84.53,1.33,1.41,1.33.51,0,.93-.26,1.19-.74l4.87-9.75h19.28s4.87,9.76,4.87,9.76c.25.47.67.73,1.18.73.88,0,1.41-.5,1.41-1.33,0-.21,0-.41-7.33-15.16ZM762.68,168.97h-16.56l8.29-16.55,8.27,16.55Z"/>
    </g>
  </g>
</svg>